<svg width="263" height="37" viewBox="0 0 263 37" fill="none" xmlns="http://www.w3.org/2000/svg">
<path d="M2.03438 36.5C1.46771 36.5 1.01771 36.3333 0.684375 36C0.351042 35.6333 0.184375 35.1333 0.184375 34.5V2.5C0.184375 1.86667 0.351042 1.38333 0.684375 1.05C1.01771 0.683331 1.46771 0.499998 2.03438 0.499998C2.63438 0.499998 3.10104 0.683331 3.43438 1.05C3.76771 1.38333 3.93438 1.86667 3.93438 2.5V16.45H25.8844V2.5C25.8844 1.86667 26.051 1.38333 26.3844 1.05C26.7177 0.683331 27.1844 0.499998 27.7844 0.499998C28.351 0.499998 28.801 0.683331 29.1344 1.05C29.4677 1.38333 29.6344 1.86667 29.6344 2.5V34.5C29.6344 35.1333 29.4677 35.6333 29.1344 36C28.801 36.3333 28.351 36.5 27.7844 36.5C27.2177 36.5 26.751 36.3333 26.3844 36C26.051 35.6333 25.8844 35.1333 25.8844 34.5V19.6H3.93438V34.5C3.93438 35.1333 3.76771 35.6333 3.43438 36C3.10104 36.3333 2.63438 36.5 2.03438 36.5ZM39.1879 36.5C38.6212 36.5 38.1712 36.3333 37.8379 36C37.5046 35.6333 37.3379 35.1333 37.3379 34.5V14.95C37.3379 10.4167 38.6046 6.88333 41.1379 4.35C43.7046 1.78333 47.2546 0.499998 51.7879 0.499998C56.2879 0.499998 59.8212 1.78333 62.3879 4.35C64.9546 6.91666 66.2379 10.45 66.2379 14.95V34.5C66.2379 35.1333 66.0712 35.6333 65.7379 36C65.4046 36.3333 64.9379 36.5 64.3379 36.5C63.7712 36.5 63.3046 36.3333 62.9379 36C62.6046 35.6333 62.4379 35.1333 62.4379 34.5V23.25H41.0879V34.5C41.0879 35.1333 40.9212 35.6333 40.5879 36C40.2546 36.3333 39.7879 36.5 39.1879 36.5ZM62.4379 20.15V14.8C62.4379 11.2333 61.5212 8.5 59.6879 6.6C57.8546 4.66667 55.2212 3.7 51.7879 3.7C48.3212 3.7 45.6712 4.65 43.8379 6.55C42.0046 8.45 41.0879 11.2 41.0879 14.8V20.15H62.4379ZM75.5148 36.5C74.9482 36.5 74.4982 36.3333 74.1648 36C73.8315 35.6333 73.6648 35.1333 73.6648 34.5V14.1C73.6648 11.3333 74.2482 8.93333 75.4148 6.9C76.6148 4.83333 78.3148 3.25 80.5148 2.15C82.7148 1.05 85.2982 0.499998 88.2648 0.499998C91.2315 0.499998 93.7982 1.05 95.9648 2.15C98.1648 3.25 99.8482 4.83333 101.015 6.9C102.215 8.93333 102.815 11.3333 102.815 14.1V34.5C102.815 35.1333 102.648 35.6333 102.315 36C102.015 36.3333 101.565 36.5 100.965 36.5C100.398 36.5 99.9315 36.3333 99.5648 36C99.2315 35.6333 99.0648 35.1333 99.0648 34.5V13.95C99.0648 10.7167 98.1148 8.2 96.2148 6.4C94.3148 4.6 91.6648 3.7 88.2648 3.7C84.9315 3.7 82.2815 4.61667 80.3148 6.45C78.3815 8.28333 77.4148 10.7833 77.4148 13.95V34.5C77.4148 35.1333 77.2482 35.6333 76.9148 36C76.5815 36.3333 76.1148 36.5 75.5148 36.5ZM125.809 36.5C122.276 36.5 119.193 35.7667 116.559 34.3C113.926 32.8333 111.893 30.75 110.459 28.05C109.026 25.3167 108.309 22.15 108.309 18.55C108.309 14.95 109.026 11.7833 110.459 9.05C111.893 6.31666 113.926 4.21666 116.559 2.75C119.226 1.25 122.309 0.499998 125.809 0.499998C128.643 0.499998 131.276 0.983331 133.709 1.95C136.176 2.91667 138.059 4.25 139.359 5.95C139.659 6.28333 139.809 6.68333 139.809 7.15C139.809 7.68333 139.576 8.1 139.109 8.4C138.809 8.6 138.476 8.7 138.109 8.7C137.809 8.7 137.509 8.63333 137.209 8.5C136.909 8.33333 136.659 8.13333 136.459 7.9C135.426 6.6 133.993 5.58333 132.159 4.85C130.326 4.08333 128.209 3.7 125.809 3.7C123.009 3.7 120.576 4.3 118.509 5.5C116.443 6.7 114.859 8.41667 113.759 10.65C112.659 12.8833 112.109 15.5167 112.109 18.55C112.109 23.15 113.326 26.7667 115.759 29.4C118.193 32 121.543 33.3 125.809 33.3C128.043 33.3 130.026 32.95 131.759 32.25C133.493 31.5167 134.843 30.5167 135.809 29.25C136.809 27.95 137.309 26.4833 137.309 24.85V23.15C137.309 22.25 137.126 21.6 136.759 21.2C136.426 20.8 135.776 20.6 134.809 20.6H127.209C125.943 20.6 125.309 20.1 125.309 19.1C125.309 18.0333 125.943 17.5 127.209 17.5H135.459C137.359 17.5 138.776 17.9167 139.709 18.75C140.643 19.5833 141.109 20.8667 141.109 22.6V24.5C141.109 26.7333 140.443 28.7667 139.109 30.6C137.776 32.4333 135.943 33.8833 133.609 34.95C131.276 35.9833 128.676 36.5 125.809 36.5ZM149.393 36.5C148.826 36.5 148.376 36.3333 148.043 36C147.71 35.6333 147.543 35.1333 147.543 34.5V11.9C147.543 8.36667 148.543 5.58333 150.543 3.55C152.543 1.51666 155.293 0.499998 158.793 0.499998C160.826 0.499998 162.693 1.03333 164.393 2.1C166.126 3.13333 167.426 4.51667 168.293 6.25C169.16 4.48333 170.426 3.08333 172.093 2.05C173.793 1.01667 175.693 0.499998 177.793 0.499998C181.293 0.499998 184.043 1.51666 186.043 3.55C188.043 5.55 189.043 8.33333 189.043 11.9V34.5C189.043 35.1333 188.86 35.6333 188.493 36C188.16 36.3333 187.71 36.5 187.143 36.5C186.543 36.5 186.076 36.3333 185.743 36C185.443 35.6333 185.293 35.1333 185.293 34.5V11.9C185.293 9.26666 184.693 7.25 183.493 5.85C182.326 4.45 180.393 3.75 177.693 3.75C175.326 3.75 173.476 4.48333 172.143 5.95C170.81 7.38333 170.143 9.36667 170.143 11.9V34.5C170.143 35.1333 169.976 35.6333 169.643 36C169.31 36.3333 168.86 36.5 168.293 36.5C167.726 36.5 167.276 36.3333 166.943 36C166.643 35.6333 166.493 35.1333 166.493 34.5V11.9C166.493 9.43333 165.793 7.46666 164.393 6C162.993 4.5 161.16 3.75 158.893 3.75C156.193 3.75 154.243 4.45 153.043 5.85C151.876 7.25 151.293 9.26666 151.293 11.9V34.5C151.293 35.1333 151.126 35.6333 150.793 36C150.46 36.3333 149.993 36.5 149.393 36.5ZM198.416 36.5C197.85 36.5 197.4 36.3333 197.066 36C196.733 35.6333 196.566 35.1333 196.566 34.5V14.95C196.566 10.4167 197.833 6.88333 200.366 4.35C202.933 1.78333 206.483 0.499998 211.016 0.499998C215.516 0.499998 219.05 1.78333 221.616 4.35C224.183 6.91666 225.466 10.45 225.466 14.95V34.5C225.466 35.1333 225.3 35.6333 224.966 36C224.633 36.3333 224.166 36.5 223.566 36.5C223 36.5 222.533 36.3333 222.166 36C221.833 35.6333 221.666 35.1333 221.666 34.5V23.25H200.316V34.5C200.316 35.1333 200.15 35.6333 199.816 36C199.483 36.3333 199.016 36.5 198.416 36.5ZM221.666 20.15V14.8C221.666 11.2333 220.75 8.5 218.916 6.6C217.083 4.66667 214.45 3.7 211.016 3.7C207.55 3.7 204.9 4.65 203.066 6.55C201.233 8.45 200.316 11.2 200.316 14.8V20.15H221.666ZM234.743 36.5C234.177 36.5 233.727 36.3333 233.393 36C233.06 35.6333 232.893 35.1333 232.893 34.5V14.1C232.893 11.3333 233.477 8.93333 234.643 6.9C235.843 4.83333 237.543 3.25 239.743 2.15C241.943 1.05 244.527 0.499998 247.493 0.499998C250.46 0.499998 253.027 1.05 255.193 2.15C257.393 3.25 259.077 4.83333 260.243 6.9C261.443 8.93333 262.043 11.3333 262.043 14.1V34.5C262.043 35.1333 261.877 35.6333 261.543 36C261.243 36.3333 260.793 36.5 260.193 36.5C259.627 36.5 259.16 36.3333 258.793 36C258.46 35.6333 258.293 35.1333 258.293 34.5V13.95C258.293 10.7167 257.343 8.2 255.443 6.4C253.543 4.6 250.893 3.7 247.493 3.7C244.16 3.7 241.51 4.61667 239.543 6.45C237.61 8.28333 236.643 10.7833 236.643 13.95V34.5C236.643 35.1333 236.477 35.6333 236.143 36C235.81 36.3333 235.343 36.5 234.743 36.5Z" fill="white"/>
</svg>
